<?xml version="1.0" encoding="UTF-8" standalone="no"?>
<!-- Created with Inkscape (http://www.inkscape.org/) -->

<svg
   width="58.347351mm"
   height="50.73407mm"
   viewBox="0 0 58.347351 50.73407"
   version="1.1"
   id="svg1"
   xml:space="preserve"
   inkscape:version="1.4.2 (ebf0e940d0, 2025-05-08)"
   sodipodi:docname="icon_planets.svg"
   xmlns:inkscape="http://www.inkscape.org/namespaces/inkscape"
   xmlns:sodipodi="http://sodipodi.sourceforge.net/DTD/sodipodi-0.dtd"
   xmlns="http://www.w3.org/2000/svg"
   xmlns:svg="http://www.w3.org/2000/svg"><sodipodi:namedview
     id="namedview1"
     pagecolor="#ffffff"
     bordercolor="#000000"
     borderopacity="0.25"
     inkscape:showpageshadow="2"
     inkscape:pageopacity="0.0"
     inkscape:pagecheckerboard="0"
     inkscape:deskcolor="#d1d1d1"
     inkscape:document-units="mm"
     inkscape:zoom="0.72248176"
     inkscape:cx="209.00182"
     inkscape:cy="400.70216"
     inkscape:window-width="1920"
     inkscape:window-height="1020"
     inkscape:window-x="0"
     inkscape:window-y="0"
     inkscape:window-maximized="1"
     inkscape:current-layer="layer1" /><defs
     id="defs1" /><g
     inkscape:label="Layer 1"
     inkscape:groupmode="layer"
     id="layer1"
     transform="translate(-19.974689,-19.651386)"><path
       d="m 47.03102,70.214837 c -0.32091,-0.0453 -1.27107,-0.17546 -2.11148,-0.28925 -1.54015,-0.20854 -4.62044,-1.04722 -6.05408,-1.64836 l -0.77502,-0.32498 1.74746,-0.62987 c 9.58782,-3.45591 19.61206,-10.29363 29.41332,-20.063376 l 3.74389,-3.73185 -5.5e-4,1.19708 c -0.007,14.414476 -13.13312,27.301896 -25.96354,25.490606 z m -22.04006,-2.22079 c -6.21284,-1.31139 -6.69743,-7.28577 -1.21436,-14.97161 l 1.11612,-1.56451 -0.35987,-1.60138 C 19.66983,28.216371 43.98665,11.433051 62.1038,23.925311 l 1.45866,1.00578 0.97244,-0.25086 c 16.95149,-4.37303 18.57496,6.7657 3.1828,21.83738 C 53.92854,60.019677 34.19761,69.937357 24.99096,67.994047 Z m 6.17684,-4.26542 c 13.48816,-2.61467 34.13168,-17.250456 41.5378,-29.449346 3.45765,-5.69522 1.5486,-8.34233 -5.01028,-6.94732 -1.34468,0.286 -1.33235,0.13803 -0.13486,1.61933 1.07438,1.32903 2.62184,4.2344 2.82113,5.29671 0.1185,0.63163 0.0229,0.78774 -1.68045,2.74439 -9.14704,10.50724 -23.05633,20.215146 -35.2676,24.614836 l -2.1227,0.7648 -0.76006,-0.73759 c -1.08379,-1.05173 -2.50943,-3.02204 -3.45371,-4.7732 -0.98806,-1.83236 -0.9167,-1.8287 -1.8965,-0.0972 -3.20784,5.66874 -0.94885,8.30532 5.96723,6.96463 z"
       style="fill:#000000"
       id="path1-3" /></g></svg>
