<?xml version="1.0" encoding="UTF-8" standalone="no"?>
<!-- Created with Inkscape (http://www.inkscape.org/) -->

<svg
   width="48.844532mm"
   height="47.981762mm"
   viewBox="0 0 48.844532 47.981762"
   version="1.1"
   id="svg1"
   xml:space="preserve"
   inkscape:version="1.4.2 (ebf0e940d0, 2025-05-08)"
   sodipodi:docname="icon_films.svg"
   xmlns:inkscape="http://www.inkscape.org/namespaces/inkscape"
   xmlns:sodipodi="http://sodipodi.sourceforge.net/DTD/sodipodi-0.dtd"
   xmlns="http://www.w3.org/2000/svg"
   xmlns:svg="http://www.w3.org/2000/svg"><sodipodi:namedview
     id="namedview1"
     pagecolor="#ffffff"
     bordercolor="#000000"
     borderopacity="0.25"
     inkscape:showpageshadow="2"
     inkscape:pageopacity="0.0"
     inkscape:pagecheckerboard="0"
     inkscape:deskcolor="#d1d1d1"
     inkscape:document-units="mm"
     inkscape:zoom="0.72248176"
     inkscape:cx="319.73125"
     inkscape:cy="486.51747"
     inkscape:window-width="1920"
     inkscape:window-height="1020"
     inkscape:window-x="0"
     inkscape:window-y="0"
     inkscape:window-maximized="1"
     inkscape:current-layer="layer1" /><defs
     id="defs1" /><g
     inkscape:label="Layer 1"
     inkscape:groupmode="layer"
     id="layer1"
     transform="translate(-20.362251,-19.8258)"><path
       d="m 20.419622,67.516656 c -0.05439,-0.14173 -0.07352,-1.08257 -0.04252,-2.09074 l 0.05637,-1.83304 4.047753,-0.0526 4.047752,-0.0526 1.584198,1.26751 c 0.871309,0.69713 2.266158,1.62231 3.099666,2.05595 0.833507,0.43364 1.515468,0.82776 1.515468,0.87583 0,0.24657 -14.213638,0.0774 -14.308689,-0.1703 z m 23.372749,0.0537 C 24.459454,65.409916 16.061059,41.479693 29.551323,26.992193 c 13.126666,-14.09701 36.496011,-6.20742 39.393533,13.29943 2.25698,15.194563 -10.404885,28.926803 -25.152485,27.278753 z m 5.113523,-5.93026 c 5.619558,-3.05855 3.543528,-11.77338 -2.800059,-11.75419 -4.61285,0.0139 -7.444679,4.81059 -5.350938,9.06358 1.505394,3.05789 5.222048,4.28474 8.150997,2.69061 z M 35.509681,49.551906 c 2.426746,-0.78375 4.181573,-3.30562 4.168962,-5.99124 -0.02872,-6.116453 -7.727616,-8.554663 -11.122668,-3.522503 -3.306992,4.901633 1.379817,11.313903 6.953706,9.513743 z m 25.751739,-0.33553 c 5.778163,-2.82698 3.715227,-11.862453 -2.708381,-11.862453 -5.244768,0 -7.919477,5.959143 -4.638897,10.335253 1.518445,2.02552 4.894449,2.72726 7.347278,1.5272 z m -13.587818,-3.03747 c 1.949951,-1.20513 1.768243,-4.269683 -0.317106,-5.348063 -1.83519,-0.94901 -4.071594,0.54007 -4.070004,2.709963 0.0017,2.38024 2.435933,3.844 4.38711,2.6381 z m 0.914244,-9.475913 c 4.911217,-2.15102 4.65911,-9.62027 -0.389025,-11.52578 -1.431981,-0.54052 -3.426517,-0.46527 -4.67871,0.17654 -7.186798,3.68353 -2.319193,14.58459 5.067735,11.34924 z"
       style="fill:#000000"
       id="path1-6" /></g></svg>
