<?xml version="1.0" encoding="UTF-8" standalone="no"?>
<!-- Created with Inkscape (http://www.inkscape.org/) -->

<svg
   width="49.980103mm"
   height="54.862583mm"
   viewBox="0 0 49.980103 54.862583"
   version="1.1"
   id="svg1"
   xml:space="preserve"
   inkscape:version="1.4.2 (ebf0e940d0, 2025-05-08)"
   sodipodi:docname="icon_people.svg"
   xmlns:inkscape="http://www.inkscape.org/namespaces/inkscape"
   xmlns:sodipodi="http://sodipodi.sourceforge.net/DTD/sodipodi-0.dtd"
   xmlns="http://www.w3.org/2000/svg"
   xmlns:svg="http://www.w3.org/2000/svg"><sodipodi:namedview
     id="namedview1"
     pagecolor="#ffffff"
     bordercolor="#000000"
     borderopacity="0.25"
     inkscape:showpageshadow="2"
     inkscape:pageopacity="0.0"
     inkscape:pagecheckerboard="0"
     inkscape:deskcolor="#d1d1d1"
     inkscape:document-units="mm"
     inkscape:zoom="0.72248176"
     inkscape:cx="285.1283"
     inkscape:cy="475.44453"
     inkscape:window-width="1920"
     inkscape:window-height="1020"
     inkscape:window-x="0"
     inkscape:window-y="0"
     inkscape:window-maximized="1"
     inkscape:current-layer="layer1" /><defs
     id="defs1" /><g
     inkscape:label="Layer 1"
     inkscape:groupmode="layer"
     id="layer1"
     transform="translate(-8.9848941,-3.0828302)"><path
       d="m 9.986133,57.534283 c -1.140899,-0.69572 -1.16173,-0.915 -0.77604,-8.16898 0.600011,-11.28489 1.464422,-12.76441 8.642174,-14.79197 1.215772,-0.34343 3.337146,-1.05525 4.714165,-1.58181 3.022565,-1.155806 2.650935,-1.150816 4.295204,-0.0577 4.292781,2.85384 9.959661,2.80547 14.455031,-0.12338 1.47009,-0.957796 1.04609,-0.990256 4.70114,0.3599 1.6917,0.62491 4.03854,1.41828 5.21519,1.76303 5.82186,1.70581 6.80463,3.48509 7.42225,13.43773 0.51773,8.34316 0.49682,8.55287 -0.92567,9.28391 -0.89123,0.45803 -46.9855,0.34147 -47.743444,-0.12072 z M 31.445847,30.564237 c -6.867511,-1.66452 -11.687542,-12.27279 -8.811533,-19.39307 5.437676,-13.46234 24.059073,-9.083 23.379983,5.49845 -0.43676,9.37797 -7.0764,15.7105 -14.56845,13.89462 z"
       style="fill:#000000"
       id="path1-2" /></g></svg>
