<?xml version="1.0" encoding="UTF-8" standalone="no"?>
<!-- Created with Inkscape (http://www.inkscape.org/) -->

<svg
   width="35.591228mm"
   height="69.295685mm"
   viewBox="0 0 35.591228 69.295685"
   version="1.1"
   id="svg1"
   xml:space="preserve"
   inkscape:version="1.4.2 (ebf0e940d0, 2025-05-08)"
   sodipodi:docname="icon_starships.svg"
   xmlns:inkscape="http://www.inkscape.org/namespaces/inkscape"
   xmlns:sodipodi="http://sodipodi.sourceforge.net/DTD/sodipodi-0.dtd"
   xmlns="http://www.w3.org/2000/svg"
   xmlns:svg="http://www.w3.org/2000/svg"><sodipodi:namedview
     id="namedview1"
     pagecolor="#ffffff"
     bordercolor="#000000"
     borderopacity="0.25"
     inkscape:showpageshadow="2"
     inkscape:pageopacity="0.0"
     inkscape:pagecheckerboard="0"
     inkscape:deskcolor="#d1d1d1"
     inkscape:document-units="mm"
     inkscape:zoom="3.0965432"
     inkscape:cx="67.171677"
     inkscape:cy="130.95248"
     inkscape:window-width="1920"
     inkscape:window-height="1020"
     inkscape:window-x="0"
     inkscape:window-y="0"
     inkscape:window-maximized="1"
     inkscape:current-layer="layer1" /><defs
     id="defs1" /><g
     inkscape:label="Layer 1"
     inkscape:groupmode="layer"
     id="layer1"
     transform="translate(-127.56715,-58.653489)"><path
       style="fill:#aa82ff;fill-opacity:1"
       d="m 144.90849,127.42214 c -0.66215,-1.76975 -1.18649,-3.67708 -1.45243,-5.28327 l -0.25618,-1.54728 -0.66814,0.96381 c -0.36748,0.5301 -1.03446,1.66358 -1.48218,2.51885 l -0.81402,1.55504 -0.22132,-0.58211 c -1.04791,-2.7562 -0.93533,-6.47567 0.26633,-8.79943 l 0.28791,-0.55675 4.78965,0.0153 c 5.48183,0.0175 4.91205,-0.20173 5.66526,2.18012 0.70398,2.22621 0.6305,4.8494 -0.18426,6.57765 l -0.55013,1.16692 -0.78005,-1.5559 c -1.00045,-1.99551 -1.72918,-3.25976 -1.82421,-3.16473 -0.0412,0.0412 -0.21008,0.72632 -0.37535,1.52255 -0.98205,4.73117 -1.83458,6.50278 -2.40088,4.98921 z m -17.10795,-7.17843 c -0.17339,-0.17339 -0.23339,-2.14664 -0.23339,-7.67609 v -7.4427 l 3.25767,-3.41974 3.25767,-3.419747 0.14534,1.42008 c 0.50334,4.917937 0.77963,7.259137 1.03087,8.735127 l 0.28509,1.67492 -2.64373,4.34361 c -3.90119,6.40958 -4.16979,6.71427 -5.09952,5.78454 z m 33.65275,-0.01 c -0.10824,-0.13371 -1.53237,-2.43086 -3.16473,-5.10479 l -2.96793,-4.86168 0.41896,-3.01506 c 0.23042,-1.65829 0.52055,-4.35472 0.64473,-5.99208 0.21371,-2.817977 0.2435,-2.958227 0.55759,-2.625577 0.1825,0.19329 1.65586,1.731247 3.27414,3.417697 l 2.94233,3.06628 v 7.44578 c 0,5.53184 -0.06,7.50577 -0.23339,7.67916 -0.30566,0.30567 -1.22126,0.29962 -1.4717,-0.01 z m -23.55333,-9.0434 c -1.81429,-5.73867 -2.2522,-11.04387 -2.10919,-25.552277 0.13479,-13.67376 1.09954,-16.85023 7.66594,-25.24037 1.86744,-2.3861 2.10347,-2.36728 4.06597,0.32413 6.96808,9.55618 7.37135,11.09197 7.3665,28.05383 -0.004,14.375527 -0.24317,16.988557 -2.05362,22.448407 l -0.61761,1.86254 h -6.85924 -6.85924 z m 9.49428,-30.542947 c 2.68534,-1.64594 2.31637,-5.90374 -0.61785,-7.12973 -2.83032,-1.18259 -5.86789,1.49294 -5.18543,4.56739 0.62745,2.82665 3.38538,4.04436 5.80328,2.56234 z"
       id="path1"
       sodipodi:nodetypes="sscsscsscssscssssssscccsscsscscsssscssccsssscscccsssss" /></g></svg>
