<?xml version="1.0" encoding="UTF-8" standalone="no"?>
<!-- Created with Inkscape (http://www.inkscape.org/) -->

<svg
   width="61.513317mm"
   height="44.720646mm"
   viewBox="0 0 61.513317 44.720646"
   version="1.1"
   id="svg1"
   xml:space="preserve"
   inkscape:version="1.4.2 (ebf0e940d0, 2025-05-08)"
   sodipodi:docname="icon_vehicles.svg"
   xmlns:inkscape="http://www.inkscape.org/namespaces/inkscape"
   xmlns:sodipodi="http://sodipodi.sourceforge.net/DTD/sodipodi-0.dtd"
   xmlns="http://www.w3.org/2000/svg"
   xmlns:svg="http://www.w3.org/2000/svg"><sodipodi:namedview
     id="namedview1"
     pagecolor="#ffffff"
     bordercolor="#000000"
     borderopacity="0.25"
     inkscape:showpageshadow="2"
     inkscape:pageopacity="0.0"
     inkscape:pagecheckerboard="0"
     inkscape:deskcolor="#d1d1d1"
     inkscape:document-units="mm"
     inkscape:zoom="0.72248176"
     inkscape:cx="-18.685593"
     inkscape:cy="180.6274"
     inkscape:window-width="1920"
     inkscape:window-height="1020"
     inkscape:window-x="0"
     inkscape:window-y="32"
     inkscape:window-maximized="1"
     inkscape:current-layer="layer1" /><defs
     id="defs1" /><g
     inkscape:label="Layer 1"
     inkscape:groupmode="layer"
     id="layer1"
     transform="translate(-25.280324,-17.535863)"><path
       d="m 40.963041,61.81883 c -0.451645,-0.49906 -0.320861,-1.21408 0.277217,-1.51558 0.377934,-0.19052 3.669796,-0.24511 14.781053,-0.24511 11.11126,0 14.40312,0.0546 14.78105,0.24511 0.59808,0.3015 0.72887,1.01652 0.27722,1.51558 -0.52812,0.58357 -29.588415,0.58357 -30.11654,0 z m -4.22672,-5.46575 c -1.239907,-0.65503 -2.692103,-2.94322 -2.692103,-4.24187 0,-0.25684 -0.411022,-0.47545 -1.65654,-0.88107 -3.413391,-1.11162 -5.99984,-3.4416 -6.776609,-6.10466 L 25.313243,44.104423 H 56.053441 86.79364 l -0.13147,0.729327 c -0.49178,2.72827 -3.2591,5.27548 -7.035909,6.47632 l -1.3867,0.4409 -0.30654,1.10255 c -1.30221,4.68379 -6.17097,5.20042 -7.83935,0.83183 l -0.31659,-0.82899 h -13.78219 c -13.154023,0 -13.782195,0.016 -13.782195,0.3509 0,0.42899 -0.941419,1.92386 -1.579773,2.50851 -1.117701,1.02368 -2.681204,1.2794 -3.896602,0.63731 z M 25.98874,40.846763 c 2.278211,-3.59638 4.886813,-5.95381 8.567635,-7.74267 l 1.387351,-0.67424 20.298015,0.0513 20.29801,0.0513 1.26417,0.62446 c 3.69158,1.82354 6.177439,4.17593 8.537189,8.07886 l 0.44096,0.72933 H 56.031201 25.280324 Z m 15.553172,-10.98511 c 3.468505,-15.792 23.637709,-16.63866 28.884539,-1.21252 0.31372,0.92237 0.5704,1.71396 0.5704,1.7591 0,0.0451 -6.65843,0.0821 -14.79651,0.0821 H 41.403839 Z"
       style="fill:#aa82ff;fill-opacity:1"
       id="path1-7" /></g></svg>
