<?xml version="1.0" encoding="UTF-8" standalone="no"?>
<!-- Created with Inkscape (http://www.inkscape.org/) -->

<svg
   width="44.393105mm"
   height="55.13142mm"
   viewBox="0 0 44.393105 55.13142"
   version="1.1"
   id="svg1"
   xml:space="preserve"
   inkscape:version="1.4.2 (ebf0e940d0, 2025-05-08)"
   sodipodi:docname="icon_species.svg"
   xmlns:inkscape="http://www.inkscape.org/namespaces/inkscape"
   xmlns:sodipodi="http://sodipodi.sourceforge.net/DTD/sodipodi-0.dtd"
   xmlns="http://www.w3.org/2000/svg"
   xmlns:svg="http://www.w3.org/2000/svg"><sodipodi:namedview
     id="namedview1"
     pagecolor="#ffffff"
     bordercolor="#000000"
     borderopacity="0.25"
     inkscape:showpageshadow="2"
     inkscape:pageopacity="0.0"
     inkscape:pagecheckerboard="0"
     inkscape:deskcolor="#d1d1d1"
     inkscape:document-units="mm"
     inkscape:zoom="0.72248176"
     inkscape:cx="77.510607"
     inkscape:cy="247.06506"
     inkscape:window-width="1920"
     inkscape:window-height="1020"
     inkscape:window-x="0"
     inkscape:window-y="0"
     inkscape:window-maximized="1"
     inkscape:current-layer="layer1" /><defs
     id="defs1" /><g
     inkscape:label="Layer 1"
     inkscape:groupmode="layer"
     id="layer1"
     transform="translate(-34.671315,-40.522388)"><path
       d="M 55.231858,95.46593 C 44.747042,92.82415 33.124784,72.28782 34.841001,59.43563 38.174591,34.47148 74.865711,34.11148 78.830531,59.00402 81.170748,73.69673 65.419992,98.03295 55.231858,95.46593 Z M 54.114396,77.38221 c 1.625718,-0.87005 -0.391873,-6.8191 -3.301011,-9.73332 -7.650797,-7.66415 -15.25968,-4.59501 -10.390898,4.19131 2.256243,4.07167 10.331708,7.34034 13.691909,5.54201 z m 11.733257,-0.1084 c 5.451351,-1.39 9.269753,-6.35912 9.269753,-12.0633 0,-4.69174 -11.433999,-0.36488 -14.435667,5.46277 -1.255597,2.4377 -1.778638,5.68378 -1.046232,6.49308 0.600346,0.66337 3.813908,0.71896 6.212146,0.10745 z"
       style="fill:#000000"
       id="path1-2" /></g></svg>
